# xmcd
#
# Track frame offsets:
#	150
#	20613
#	36825
#	54627
#	71329
#	86621
#	104751
#	121381
#	138665
#	156626
#	174386
#	192282
#	208839
#	222519
#	242908
#	261415
#	279682
#	300102
#	317268
#
# Disc length: 4443
#
# Revision: 1
# Processed by: cddbd v1.5.1PL0 Copyright (c) Steve Scherf et al.
# Submitted via: MusicManager v6.0.0.0
# Normalized: r0:DSETVAR1
#
DISCID=22115913
DTITLE=Various Artist - Nu Urban Traxx vol.43
DYEAR=1900
DGENRE=blues
TTITLE0=Nelly and Kyjuan - Air Force Ones
TTITLE1=Roots, The &Musiq - Break You Off
TTITLE2=Clipse and Faith Ebans - Ma, I Don't  Love Her
TTITLE3=Kelly, R - Ignition
TTITLE4=Nas - Made You Look
TTITLE5=2Pac - Thugs Mansion
TTITLE6=Solange, Nora - Feelin You
TTITLE7=Common and Mary J Blige - Come Close To Me
TTITLE8=Joe and Jadakiss - I Want A Girl Like You
TTITLE9=Miss Elliot and Ludacris - Gossip Folks
TTITLE10=Xzibit and Dr Dre - Symphony in X Major
TTITLE11=50 Cents - Wanksta
TTITLE12=WC and Nate Dog - Strreets, The
TTITLE13=504 Boys - Tight Whips
TTITLE14=P Diddy - Do That Baby
TTITLE15=KCi and Jo Jo - This Very Moment
TTITLE16=Cam'ron - Daydreaming
TTITLE17=Freeway and Jay Z - What We Do
TTITLE18=Johnson, S - Guess What
EXTD=
EXTT0=
EXTT1=
EXTT2=
EXTT3=
EXTT4=
EXTT5=
EXTT6=
EXTT7=
EXTT8=
EXTT9=
EXTT10=
EXTT11=
EXTT12=
EXTT13=
EXTT14=
EXTT15=
EXTT16=
EXTT17=
EXTT18=
PLAYORDER=
